<?xml version="1.0" encoding="UTF-8" standalone="no"?>
<!-- Created with Inkscape (http://www.inkscape.org/) -->

<svg
   xmlns:dc="http://purl.org/dc/elements/1.1/"
   xmlns:cc="http://creativecommons.org/ns#"
   xmlns:rdf="http://www.w3.org/1999/02/22-rdf-syntax-ns#"
   xmlns:svg="http://www.w3.org/2000/svg"
   xmlns="http://www.w3.org/2000/svg"
   xmlns:sodipodi="http://sodipodi.sourceforge.net/DTD/sodipodi-0.dtd"
   xmlns:inkscape="http://www.inkscape.org/namespaces/inkscape"
   width="18.245667mm"
   height="14.075833mm"
   viewBox="0 0 18.245667 14.075833"
   version="1.1"
   id="svg4000"
   inkscape:version="0.92.4 (5da689c313, 2019-01-14)"
   sodipodi:docname="0-100-attenuator.svg">
  <defs
     id="defs3994" />
  <sodipodi:namedview
     id="base"
     pagecolor="#ffffff"
     bordercolor="#666666"
     borderopacity="1.0"
     inkscape:pageopacity="0.0"
     inkscape:pageshadow="2"
     inkscape:zoom="0.35"
     inkscape:cx="34.48"
     inkscape:cy="26.600012"
     inkscape:document-units="mm"
     inkscape:current-layer="layer1"
     showgrid="false"
     inkscape:window-width="1920"
     inkscape:window-height="1017"
     inkscape:window-x="-8"
     inkscape:window-y="-8"
     inkscape:window-maximized="1" />
  <metadata
     id="metadata3997">
    <rdf:RDF>
      <cc:Work
         rdf:about="">
        <dc:format>image/svg+xml</dc:format>
        <dc:type
           rdf:resource="http://purl.org/dc/dcmitype/StillImage" />
        <dc:title></dc:title>
      </cc:Work>
    </rdf:RDF>
  </metadata>
  <g
     inkscape:label="Layer 1"
     inkscape:groupmode="layer"
     id="layer1"
     transform="translate(-96.7105,-141.79542)">
    <g
       id="g3835"
       transform="matrix(0.35277777,0,0,-0.35277777,97.4725,154.49542)">
      <path
         d="m 0,0 -0.06,0.24 -0.12,0.24 -0.12,0.3 -0.12,0.24 -0.06,0.3 -0.12,0.24 -0.06,0.24 -0.12,0.3 -0.06,0.3 -0.06,0.24 -0.12,0.3 -0.06,0.24 -0.06,0.3 -0.06,0.3 -0.06,0.24 -0.06,0.3 -0.06,0.3 -0.06,0.3 v 0.24 l -0.06,0.3 -0.06,0.3 v 0.3 l -0.06,0.3 v 0.3 L -1.68,6.9 V 7.8 L -1.74,8.1 V 9 l 0.06,1.14 0.06,1.14 0.12,1.08 0.48,2.16 0.3,1.08 0.72,2.04 0.96,1.92 0.54,0.9 1.2,1.8 0.66,0.84 1.44,1.56 1.56,1.44 0.84,0.66 1.8,1.2 0.9,0.54 0.96,0.48 2.04,0.84 1.02,0.36 1.02,0.3 1.08,0.24 1.14,0.18 1.08,0.12 1.14,0.12 h 2.28 l 1.14,-0.12 1.08,-0.12 1.08,-0.18 1.08,-0.24 1.08,-0.3 1.02,-0.36 1.02,-0.42 0.96,-0.42 0.96,-0.48 0.96,-0.54 0.9,-0.6 0.84,-0.6 0.84,-0.66 0.84,-0.72 0.78,-0.72 1.44,-1.56 0.66,-0.84 1.2,-1.8 0.54,-0.9 0.48,-0.96 0.42,-0.96 0.42,-1.02 0.36,-1.02 0.3,-1.08 0.24,-1.08 0.18,-1.08 0.18,-1.08 0.06,-1.14 L 42.78,9 V 8.7 L 42.72,8.52 V 7.32 L 42.66,7.2 V 6.6 L 42.78,6.54 42.96,6.48 43.14,6.36 43.26,6.3 43.44,6.18 43.56,6.12 43.74,6 43.86,5.88 44.04,5.76 44.16,5.64 44.28,5.46 44.46,5.34 44.7,4.98 44.82,4.86 44.94,4.68 45.06,4.44 45.3,4.08 45.36,3.9 45.48,3.66 45.54,3.42 45.66,3.24 45.78,2.76 45.84,2.52 45.96,2.28 V 2.04 L 46.02,1.8 46.08,1.56 46.14,1.32 V 0.84 L 46.2,0.66 V -0.72 L 46.14,-0.9 V -1.2 L 46.08,-1.38 V -1.5 L 46.02,-1.68 V -1.86 L 45.96,-1.98 V -2.16 L 45.9,-2.28 45.84,-2.46 45.78,-2.58 V -2.7 l -0.06,-0.18 -0.18,-0.36 -0.06,-0.18 -0.06,-0.12 -0.06,-0.12 -0.12,-0.24 0.24,0.42 0.24,0.36 0.24,0.42 0.24,0.36 0.48,0.84 0.18,0.36 0.24,0.42 0.54,1.26 0.18,0.48 0.18,0.42 0.12,0.42 0.18,0.42 0.12,0.48 0.12,0.42 0.18,0.48 0.12,0.42 0.06,0.48 0.12,0.48 0.12,0.42 0.06,0.48 0.06,0.48 0.12,0.96 0.06,0.48 0.12,0.96 v 2.76 l -0.12,1.32 -0.18,1.26 -0.24,1.26 -0.24,1.26 -0.36,1.2 -0.42,1.2 -0.48,1.2 -0.48,1.14 -1.2,2.16 -0.72,1.08 -0.72,1.02 -0.72,0.96 -1.68,1.8 -0.9,0.9 -1.92,1.56 -1.02,0.72 -1.08,0.66 -2.16,1.2 -1.14,0.48 -1.2,0.48 -1.2,0.42 -1.2,0.36 -2.52,0.48 -1.32,0.18 L 25.02,36 H 22.38 L 21.06,35.88 19.8,35.7 17.28,35.22 16.02,34.86 14.82,34.44 12.54,33.48 11.4,32.88 10.32,32.28 9.3,31.62 8.28,30.9 7.26,30.12 6.36,29.34 5.46,28.44 3.78,26.64 3,25.68 2.28,24.66 1.62,23.58 0.42,21.42 -0.12,20.28 -0.96,17.88 -1.32,16.68 -1.62,15.42 -1.86,14.16 -1.98,12.9 -2.1,11.58 -2.16,10.26 V 9.9 L -2.1,9.6 V 8.58 l 0.06,-0.36 v -0.3 l 0.06,-0.36 v -0.3 l 0.06,-0.36 0.06,-0.36 0.06,-0.3 0.06,-0.36 0.06,-0.3 0.06,-0.3 0.06,-0.36 0.06,-0.3 0.06,-0.3 0.12,-0.36 0.06,-0.3 L -1.2,3.36 -1.08,3 -1.02,2.7 -0.9,2.4 -0.78,2.1 -0.66,1.8 -0.6,1.5 0,0"
         style="fill:#1f1a17;fill-opacity:1;fill-rule:evenodd;stroke:none"
         id="path3837"
         inkscape:connector-curvature="0" />
    </g>
  </g>
</svg>
