<?xml version="1.0" encoding="UTF-8" standalone="no"?>
<!-- Created with Inkscape (http://www.inkscape.org/) -->

<svg
   xmlns:dc="http://purl.org/dc/elements/1.1/"
   xmlns:cc="http://creativecommons.org/ns#"
   xmlns:rdf="http://www.w3.org/1999/02/22-rdf-syntax-ns#"
   xmlns:svg="http://www.w3.org/2000/svg"
   xmlns="http://www.w3.org/2000/svg"
   xmlns:sodipodi="http://sodipodi.sourceforge.net/DTD/sodipodi-0.dtd"
   xmlns:inkscape="http://www.inkscape.org/namespaces/inkscape"
   width="19.769665mm"
   height="15.726838mm"
   viewBox="0 0 19.769665 15.726838"
   version="1.1"
   id="svg4064"
   inkscape:version="0.92.4 (5da689c313, 2019-01-14)"
   sodipodi:docname="crossfader.svg">
  <defs
     id="defs4058">
    <clipPath
       clipPathUnits="userSpaceOnUse"
       id="clipPath3793">
      <path
         d="m 206.52,189.96 h 41.34 v 44.64 h -41.34 z"
         id="path3791"
         inkscape:connector-curvature="0" />
    </clipPath>
  </defs>
  <sodipodi:namedview
     id="base"
     pagecolor="#ffffff"
     bordercolor="#666666"
     borderopacity="1.0"
     inkscape:pageopacity="0.0"
     inkscape:pageshadow="2"
     inkscape:zoom="0.35"
     inkscape:cx="751.64571"
     inkscape:cy="292.57716"
     inkscape:document-units="mm"
     inkscape:current-layer="layer1"
     showgrid="false"
     inkscape:window-width="1920"
     inkscape:window-height="1017"
     inkscape:window-x="-8"
     inkscape:window-y="-8"
     inkscape:window-maximized="1" />
  <metadata
     id="metadata4061">
    <rdf:RDF>
      <cc:Work
         rdf:about="">
        <dc:format>image/svg+xml</dc:format>
        <dc:type
           rdf:resource="http://purl.org/dc/dcmitype/StillImage" />
        <dc:title></dc:title>
      </cc:Work>
    </rdf:RDF>
  </metadata>
  <g
     inkscape:label="Layer 1"
     inkscape:groupmode="layer"
     id="layer1"
     transform="translate(93.039595,-210.51754)">
    <g
       transform="matrix(0.35277777,0,0,-0.35277777,-165.89526,293.2792)"
       id="g3787">
      <g
         id="g3789"
         clip-path="url(#clipPath3793)">
        <g
           id="g3795"
           transform="translate(247.32,232.5)">
          <path
             d="M 0,0 -2.34,0.54 -4.62,0.96 -6.84,1.2 -9.06,1.26 h -2.1 l -2.04,-0.18 -1.98,-0.3 -1.92,-0.42 -1.86,-0.48 -1.74,-0.66 -1.68,-0.72 -1.56,-0.9 -1.5,-0.9 -1.38,-1.08 -1.32,-1.14 -1.2,-1.2 -1.02,-1.26 -0.96,-1.38 -0.84,-1.44 -0.72,-1.5 -0.6,-1.56 -0.42,-1.62 -0.3,-1.62 -0.18,-1.74 -0.06,-1.74 0.12,-1.8 0.3,-1.8 0.42,-1.86 0.6,-1.86 0.78,-1.92 0.96,-1.86 1.08,-1.92 -0.36,0.12 -0.36,0.06 -0.3,0.06 h -0.3 l -0.3,-0.06 -0.3,-0.12 -0.48,-0.24 -0.18,-0.18 -0.36,-0.48 -0.12,-0.24 -0.18,-0.3 -0.06,-0.3 -0.12,-0.3 -0.12,-0.72 v -0.36 l -0.06,-0.36 v -0.42 l 0.06,-0.36 v -0.42 l 0.06,-0.42 0.12,-0.36 0.06,-0.42 0.12,-0.42 0.12,-0.36 0.18,-0.42 0.54,-1.08 0.24,-0.3 -1.74,1.86 -1.5,1.92 -1.26,1.98 -1.08,1.98 -0.9,2.1 -0.72,2.04 -0.48,2.1 -0.3,2.1 -0.18,2.1 0.06,2.1 0.24,2.04 0.36,1.98 0.6,1.98 0.72,1.92 0.9,1.86 1.08,1.8 1.2,1.68 1.38,1.62 1.5,1.44 1.68,1.38 1.86,1.26 1.98,1.14 2.1,0.96 2.22,0.84 2.4,0.66 2.52,0.48 2.64,0.3 2.76,0.12 2.88,-0.12 3,-0.3 L -3.24,0.78 0,0"
             style="fill:none;stroke:#1f1a17;stroke-width:0.75400001;stroke-linecap:round;stroke-linejoin:round;stroke-miterlimit:10;stroke-dasharray:none;stroke-opacity:1"
             id="path3797"
             inkscape:connector-curvature="0" />
        </g>
      </g>
    </g>
    <g
       id="g3799"
       transform="matrix(0.35277777,0,0,-0.35277777,-87.007096,212.61304)">
      <path
         d="m 0,0 2.22,0.84 2.16,0.66 2.16,0.54 2.1,0.36 2.04,0.18 1.98,0.06 1.92,-0.12 1.86,-0.18 1.8,-0.36 1.68,-0.48 1.68,-0.6 1.5,-0.72 1.5,-0.84 1.32,-0.96 1.26,-1.02 1.2,-1.14 1.02,-1.2 0.96,-1.32 0.78,-1.32 0.72,-1.5 0.6,-1.5 0.42,-1.56 0.3,-1.62 0.18,-1.74 v -1.68 l -0.12,-1.8 -0.24,-1.8 -0.48,-1.86 -0.6,-1.86 -0.72,-1.86 -0.96,-1.92 -1.08,-1.86 0.36,0.12 0.36,0.06 h 0.6 l 0.3,-0.06 0.24,-0.06 0.24,-0.12 0.48,-0.36 0.18,-0.18 0.18,-0.24 0.12,-0.24 0.24,-0.6 0.12,-0.36 0.06,-0.3 0.06,-0.36 v -1.56 l -0.06,-0.36 -0.06,-0.42 -0.06,-0.42 -0.12,-0.42 -0.12,-0.36 -0.12,-0.42 -0.12,-0.36 -0.54,-1.08 -0.24,-0.36 1.68,1.86 1.5,1.92 1.26,2.04 1.02,1.98 0.84,2.1 0.6,2.1 0.48,2.1 0.24,2.1 0.06,2.1 -0.12,2.04 -0.3,2.04 -0.48,2.04 -0.66,1.92 -0.78,1.92 -0.96,1.8 -1.08,1.74 -1.26,1.62 -1.44,1.5 -1.5,1.38 -1.68,1.32 -1.8,1.08 -1.92,1.02 -2.04,0.78 -2.16,0.66 -2.28,0.42 -2.4,0.3 H 13.62 L 11.1,3.12 8.4,2.7 5.7,2.04 2.88,1.14 0,0"
         style="fill:#1f1a17;fill-opacity:1;fill-rule:evenodd;stroke:none"
         id="path3801"
         inkscape:connector-curvature="0" />
    </g>
  </g>
</svg>
