<?xml version="1.0" encoding="UTF-8" standalone="no"?>
<!-- Created with Inkscape (http://www.inkscape.org/) -->

<svg
   xmlns:dc="http://purl.org/dc/elements/1.1/"
   xmlns:cc="http://creativecommons.org/ns#"
   xmlns:rdf="http://www.w3.org/1999/02/22-rdf-syntax-ns#"
   xmlns:svg="http://www.w3.org/2000/svg"
   xmlns="http://www.w3.org/2000/svg"
   xmlns:sodipodi="http://sodipodi.sourceforge.net/DTD/sodipodi-0.dtd"
   xmlns:inkscape="http://www.inkscape.org/namespaces/inkscape"
   width="19.986624mm"
   height="17.218891mm"
   viewBox="0 0 19.986624 17.218891"
   version="1.1"
   id="svg4028"
   inkscape:version="0.92.4 (5da689c313, 2019-01-14)"
   sodipodi:docname="neg-pos-attenuator.svg">
  <defs
     id="defs4022" />
  <sodipodi:namedview
     id="base"
     pagecolor="#ffffff"
     bordercolor="#666666"
     borderopacity="1.0"
     inkscape:pageopacity="0.0"
     inkscape:pageshadow="2"
     inkscape:zoom="0.35"
     inkscape:cx="232.05571"
     inkscape:cy="-181.74608"
     inkscape:document-units="mm"
     inkscape:current-layer="layer1"
     showgrid="false"
     inkscape:window-width="1920"
     inkscape:window-height="1017"
     inkscape:window-x="-8"
     inkscape:window-y="-8"
     inkscape:window-maximized="1" />
  <metadata
     id="metadata4025">
    <rdf:RDF>
      <cc:Work
         rdf:about="">
        <dc:format>image/svg+xml</dc:format>
        <dc:type
           rdf:resource="http://purl.org/dc/dcmitype/StillImage" />
        <dc:title></dc:title>
      </cc:Work>
    </rdf:RDF>
  </metadata>
  <g
     inkscape:label="Layer 1"
     inkscape:groupmode="layer"
     id="layer1"
     transform="translate(-44.435259,-83.527458)">
    <g
       id="g3855"
       transform="matrix(0.35277777,0,0,-0.35277777,54.685217,83.638537)">
      <path
         d="m 0,0 v -0.06 h 1.44 l 1.44,-0.12 1.38,-0.18 1.38,-0.24 1.38,-0.3 1.32,-0.36 1.26,-0.42 1.26,-0.48 1.26,-0.54 1.2,-0.54 1.14,-0.66 2.16,-1.44 1.08,-0.84 1.92,-1.68 1.8,-1.92 0.78,-1.02 0.78,-1.08 0.72,-1.08 0.66,-1.14 0.6,-1.14 0.54,-1.2 0.48,-1.2 0.42,-1.26 0.36,-1.32 0.3,-1.32 0.24,-1.32 0.18,-1.32 0.12,-1.38 v -2.22 l -0.18,-2.34 -0.12,-0.78 -0.12,-0.72 -0.12,-0.78 -0.18,-0.72 -0.18,-0.78 -0.72,-2.16 -0.24,-0.66 -0.3,-0.72 -0.3,-0.66 -0.36,-0.72 -0.72,-1.32 -0.36,-0.6 -0.42,-0.66 -0.84,-1.2 -1.44,-1.8 -0.48,-0.54 -1.08,-1.08 -0.54,-0.48 -0.54,-0.54 -0.6,-0.48 -0.54,-0.48 0.06,0.12 0.12,0.12 0.12,0.06 0.06,0.12 0.24,0.24 0.06,0.12 0.12,0.12 0.06,0.12 0.12,0.12 0.12,0.24 0.12,0.12 0.06,0.12 0.06,0.18 0.12,0.24 0.06,0.18 0.12,0.24 0.06,0.18 v 0.12 l 0.06,0.18 0.06,0.12 v 0.18 l 0.06,0.12 v 0.36 l 0.06,0.12 v 0.78 l -0.06,0.24 v 0.3 l -0.06,0.24 -0.06,0.3 -0.06,0.24 -0.06,0.24 -0.12,0.24 -0.06,0.24 -0.24,0.48 -0.18,0.18 -0.12,0.24 -0.18,0.18 -0.12,0.18 -0.18,0.24 -0.18,0.12 -0.36,0.36 -0.18,0.12 -0.24,0.18 -0.18,0.12 -0.48,0.24 -0.24,0.06 -0.24,0.12 -0.72,0.18 h -0.24 l -0.24,0.06 h -0.66 l -0.12,-0.06 H 13.38 L 13.2,-38.4 h -0.18 l -0.36,-0.12 h -0.12 l -0.36,-0.12 -0.12,-0.12 -0.18,-0.06 -0.12,-0.06 -0.12,-0.12 -0.18,-0.06 1.08,0.72 0.54,0.42 1.44,1.26 0.48,0.48 0.48,0.42 0.42,0.48 0.42,0.54 0.42,0.48 0.36,0.54 0.42,0.48 0.36,0.54 0.3,0.54 0.36,0.6 0.3,0.54 0.3,0.6 0.24,0.6 0.3,0.6 0.24,0.6 0.18,0.6 0.24,0.6 0.18,0.66 0.12,0.66 0.18,0.6 0.12,0.66 0.12,1.32 0.06,0.72 0.06,0.66 v 1.8 l -0.12,1.02 -0.12,1.08 -0.18,1.02 -0.24,1.08 -0.24,0.96 -0.36,1.02 -0.36,0.96 -0.42,0.96 -0.42,0.9 -1.08,1.8 -0.6,0.84 -0.6,0.78 -1.32,1.56 -0.78,0.72 -0.72,0.66 -0.84,0.66 -0.78,0.6 -0.9,0.54 -0.84,0.54 L 9.3,-2.16 8.4,-1.74 7.38,-1.38 6.42,-1.02 5.4,-0.72 4.38,-0.48 2.22,-0.12 1.14,-0.06 0,0"
         style="fill:#1f1a17;fill-opacity:1;fill-rule:evenodd;stroke:none"
         id="path3857"
         inkscape:connector-curvature="0" />
    </g>
    <g
       id="g3867"
       transform="matrix(0.35277777,0,0,-0.35277777,54.304217,83.659703)">
      <path
         d="m 0,0 -1.14,-0.06 -1.08,-0.06 -2.16,-0.36 -1.02,-0.24 -1.02,-0.3 -0.96,-0.3 -1.02,-0.42 -0.9,-0.42 -0.96,-0.48 -0.84,-0.54 -0.9,-0.54 -0.78,-0.6 -0.84,-0.66 -0.72,-0.66 -0.78,-0.72 -0.66,-0.72 -0.66,-0.78 -0.66,-0.84 -1.08,-1.68 -0.54,-0.9 -0.42,-0.96 -0.42,-0.9 -0.36,-1.02 -0.36,-0.96 -0.48,-2.04 -0.18,-1.08 -0.18,-1.02 -0.06,-1.08 v -2.46 l 0.06,-0.66 0.12,-0.66 0.06,-0.72 0.12,-0.66 0.18,-0.6 0.12,-0.66 0.18,-0.66 0.48,-1.2 0.24,-0.66 0.24,-0.6 0.3,-0.54 0.24,-0.6 0.36,-0.6 0.3,-0.54 1.08,-1.62 0.42,-0.54 0.84,-0.96 0.48,-0.48 0.42,-0.48 0.48,-0.42 0.48,-0.48 0.54,-0.42 0.48,-0.36 0.54,-0.42 1.08,-0.72 -0.12,0.06 -0.18,0.12 -0.12,0.06 -0.18,0.12 -0.12,0.06 -0.36,0.12 -0.12,0.06 -0.18,0.06 h -0.18 l -0.36,0.12 h -1.2 l -0.3,-0.06 H -15 l -0.24,-0.06 -0.24,-0.12 -0.24,-0.06 -0.24,-0.12 -0.18,-0.06 -0.24,-0.12 -0.18,-0.18 -0.24,-0.12 -0.18,-0.12 -0.9,-0.9 -0.12,-0.24 -0.18,-0.18 -0.12,-0.24 -0.12,-0.18 -0.24,-0.48 -0.06,-0.24 -0.06,-0.3 -0.12,-0.24 v -0.24 l -0.06,-0.3 -0.06,-0.24 v -1.2 l 0.06,-0.18 v -0.12 l 0.06,-0.18 v -0.18 l 0.06,-0.12 0.06,-0.18 0.06,-0.12 v -0.18 l 0.06,-0.12 0.06,-0.18 0.06,-0.12 0.06,-0.18 0.12,-0.12 0.06,-0.12 0.06,-0.12 0.06,-0.18 0.12,-0.12 0.06,-0.12 0.12,-0.12 0.06,-0.12 0.24,-0.24 0.06,-0.12 0.54,-0.54 -1.2,0.96 -0.54,0.48 -0.54,0.54 -0.54,0.48 -0.54,0.54 -0.54,0.6 -0.48,0.54 -0.96,1.2 -0.42,0.6 -0.42,0.66 -0.42,0.6 -0.42,0.66 -1.08,1.98 -0.6,1.44 -0.3,0.66 -0.24,0.72 -0.24,0.78 -0.18,0.72 -0.24,0.72 -0.18,0.78 -0.12,0.78 -0.12,0.72 -0.12,0.78 -0.06,0.78 -0.06,0.78 -0.06,0.84 v 2.16 l 0.12,1.38 0.18,1.38 0.24,1.32 0.3,1.32 0.36,1.26 0.42,1.26 0.48,1.2 0.54,1.2 0.6,1.2 0.66,1.08 0.72,1.14 1.56,2.04 1.8,1.92 0.96,0.9 0.96,0.84 2.16,1.56 1.08,0.66 1.2,0.66 1.14,0.6 1.26,0.54 1.26,0.48 1.26,0.42 1.32,0.36 1.38,0.3 2.76,0.36 1.44,0.12 z"
         style="fill:none;stroke:#1f1a17;stroke-width:0.75;stroke-linecap:round;stroke-linejoin:round;stroke-miterlimit:10;stroke-dasharray:none;stroke-opacity:1"
         id="path3869"
         inkscape:connector-curvature="0" />
    </g>
  </g>
</svg>
